# xmcd CD database file
#
# Track frame offsets:
#	150
#	12552
#	31043
#	52352
#	82056
#	100114
#	117024
#	143506
#	161267
#	170002
#	191976
#	206102
#	226560
#	234327
#	257793
#	275755
#	294349
#	312580
#
# Disc length: 4391 seconds
#
# Revision: 5
# Processed by: cddbd v1.5.2PL0 Copyright (c) Steve Scherf et al.
# Submitted via: CDex 1.51
#
DISCID=fe112512
DTITLE=Rita Falk - Schweinskopf al Dente CD4
DYEAR=2011
DGENRE=Hörbuch
TTITLE0=Schweinskopf al Dente CD4-01
TTITLE1=Schweinskopf al Dente CD4-02
TTITLE2=Schweinskopf al Dente CD4-03
TTITLE3=Schweinskopf al Dente CD4-04
TTITLE4=Schweinskopf al Dente CD4-05
TTITLE5=Schweinskopf al Dente CD4-06
TTITLE6=Schweinskopf al Dente CD4-07
TTITLE7=Schweinskopf al Dente CD4-08
TTITLE8=Schweinskopf al Dente CD4-09
TTITLE9=Schweinskopf al Dente CD4-10
TTITLE10=Schweinskopf al Dente CD4-11
TTITLE11=Schweinskopf al Dente CD4-12
TTITLE12=Schweinskopf al Dente CD4-13
TTITLE13=Schweinskopf al Dente CD4-14
TTITLE14=Schweinskopf al Dente CD4-15
TTITLE15=Schweinskopf al Dente CD4-16
TTITLE16=Schweinskopf al Dente CD4-17
TTITLE17=Schweinskopf al Dente CD4-18
EXTD=YEAR: 2011
EXTT0=
EXTT1=
EXTT2=
EXTT3=
EXTT4=
EXTT5=
EXTT6=
EXTT7=
EXTT8=
EXTT9=
EXTT10=
EXTT11=
EXTT12=
EXTT13=
EXTT14=
EXTT15=
EXTT16=
EXTT17=
PLAYORDER=
